<svg id="Camada_2" data-name="Camada 2" xmlns="http://www.w3.org/2000/svg" viewBox="0 0 218 179.75"><title>logo</title><path d="M72,140h1v40H0l67-68A34,34,0,0,0,78,87a41.39,41.39,0,0,0-9-26h2s9,11,9,26c0,16-11,26-11,26L43,140a11,11,0,0,0-3,7v6H71V140Z" transform="translate(0 -0.25)"/><path d="M209,140h2v40H138l67-68a34,34,0,0,0,11-25,41.39,41.39,0,0,0-9-26l-.84-.84c-.11-.11-.07,0-.16-.16-1.27-1.65-3.4-4.2-9-7a76.49,76.49,0,0,0-8.18-3.54A24.83,24.83,0,0,0,180.37,48H73.2a24.75,24.75,0,0,0-15.55,5.47L57,54c-5,4-2,13-2,13l2.55,12,.26,1.21,0,.11A13.86,13.86,0,0,1,58,82.5,13.55,13.55,0,0,1,40.07,95.3,13.32,13.32,0,0,1,31,82.24c0-.08,0-.16,0-.24v0a.41.41,0,0,1,0-.11h0c.09-.51.38-2.2,1-4.57a0,0,0,0,1,0,0C33.41,72.27,36.3,64.33,42,58c9-10,26-12,26-12H180s13,0,21,7,8.67,8.88,8.67,8.88C211.74,64.77,218,74.49,218,87c0,16-11,26-11,26l-26,27a11,11,0,0,0-3,7v6h31Z" transform="translate(0 -0.25)"/><path d="M32.05,77.27c-.65,2.37-.94,4.06-1,4.57A13.19,13.19,0,0,1,32.05,77.27Z" transform="translate(0 -0.25)"/><path d="M31,82v0h0A.16.16,0,0,1,31,82Z" transform="translate(0 -0.25)"/><path d="M189,84h2v40H118l67-68s8-9,8-25c0-10.73-9-18.76-14.92-22.89a29.78,29.78,0,0,0-8.82-4.18L166,3c-7-2-16.8-1.71-21.2,1.84l-.65.53c-5,4-2,13-2,13l2.55,12,.26,1.21,0,.11a13.86,13.86,0,0,1,.17,2.15,13.55,13.55,0,0,1-17.93,12.79,13.3,13.3,0,0,1-9.07-13.06,1.85,1.85,0,0,1,0-.23v0a.41.41,0,0,1,0-.11h0c.09-.51.38-2.2,1-4.57a0,0,0,0,1,0,0c1.35-5,5.24-14.16,11.79-19.61,14.85-12.37,34-8,34-8a35.36,35.36,0,0,1,11,4s19,11,19,26c0,16-8,26-8,26L161,84a11,11,0,0,0-3,7v6h31Z" transform="translate(0 -0.25)"/><path d="M114.16,38.33v0h0Z" transform="translate(0 -0.25)"/></svg>